<?xml version="1.0" encoding="UTF-8"?>
<svg version="1.1" xmlns="http://www.w3.org/2000/svg" viewBox="0 0 512 512" fill="none">
<path d="M0 0 C0.99338379 0.01466309 1.98676758 0.02932617 3.01025391 0.04443359 C58.17905796 1.39885146 111.48252126 22.62348562 152.5 59.4375 C153.09474121 59.97052734 153.68948242 60.50355469 154.30224609 61.05273438 C161.10520642 67.18447878 167.71295275 73.32051021 173.5 80.4375 C174.47189786 81.58657938 175.44464191 82.73494328 176.41796875 83.8828125 C184.28363621 93.24949878 191.21378384 102.94756191 197.5 113.4375 C198.18425049 114.57348633 198.18425049 114.57348633 198.88232422 115.73242188 C230.28628082 168.53767477 238.72325434 233.90099301 223.96972656 293.33056641 C212.16673489 338.6755144 188.00347847 382.23239537 151.5 412.4375 C150.62988281 413.21867187 149.75976562 413.99984375 148.86328125 414.8046875 C107.31990974 451.82129243 51.4881142 470.64232994 -3.6875 470.6875 C-4.80724716 470.68851212 -4.80724716 470.68851212 -5.94961548 470.68954468 C-19.31397999 470.67048708 -32.32096605 469.77961973 -45.5 467.4375 C-46.44311035 467.27121094 -47.3862207 467.10492188 -48.35791016 466.93359375 C-90.62797383 459.1947111 -129.52004834 440.14015156 -161.5 411.4375 C-162.39211182 410.63795898 -162.39211182 410.63795898 -163.30224609 409.82226562 C-170.10520642 403.69052122 -176.71295275 397.55448979 -182.5 390.4375 C-183.47189786 389.28842062 -184.44464191 388.14005672 -185.41796875 386.9921875 C-193.28363621 377.62550122 -200.21378384 367.92743809 -206.5 357.4375 C-206.95616699 356.68017578 -207.41233398 355.92285156 -207.88232422 355.14257812 C-228.32274185 320.77234141 -239.41162598 280.7930027 -239.8125 240.8125 C-239.84150391 239.84054687 -239.87050781 238.86859375 -239.90039062 237.8671875 C-239.9578248 231.29318304 -239.06886988 226.05312238 -235.5 220.4375 C-233.28125 218.28125 -233.28125 218.28125 -231 216.9375 C-230.2471875 216.4734375 -229.494375 216.009375 -228.71875 215.53125 C-223.2897082 212.85496179 -217.21850729 212.58042119 -211.34765625 213.93359375 C-205.42396151 215.94605818 -201.12767736 218.91179375 -197.6875 224.25 C-195.52622909 230.05130614 -195.41555099 236.15259831 -195.20996094 242.28540039 C-193.65906216 287.27483469 -176.12791074 335.56106355 -142.97265625 367.0703125 C-142.24369141 367.74707031 -142.24369141 367.74707031 -141.5 368.4375 C-136.5 373.4375 -136.5 373.4375 -134.9765625 375.1015625 C-102.40720337 409.66206149 -51.60644138 424.97480324 -5.5 426.4375 C41.89297065 427.15630954 86.78716839 408.93327702 122.5 378.4375 C123.41007812 377.67050781 124.32015625 376.90351563 125.2578125 376.11328125 C130.14034217 371.90106497 134.3741364 367.38335741 138.5 362.4375 C139.26054687 361.56480469 140.02109375 360.69210937 140.8046875 359.79296875 C161.85984825 335.29420694 175.4999368 305.86219687 182.5 274.4375 C182.66516113 273.72770996 182.83032227 273.01791992 183.00048828 272.28662109 C185.75177421 259.94139912 185.81102323 247.46216846 185.875 234.875 C185.88294586 234.05704956 185.89089172 233.23909912 185.89907837 232.3963623 C186.0138939 216.99062712 184.37487569 201.82230176 180.25 186.9375 C179.93421997 185.77915649 179.93421997 185.77915649 179.61206055 184.59741211 C171.09489788 154.29543757 155.82801582 124.09480912 132.5 102.4375 C127.5 97.4375 127.5 97.4375 125.9765625 95.7734375 C94.51871447 62.39240225 45.26864804 46.33963906 0.59375 44.63671875 C-8.80269415 44.24520024 -15.96993668 43.09339841 -22.75 36.125 C-26.48965576 30.38195722 -27.24922484 24.13441741 -26.5 17.4375 C-25.26171539 12.40301441 -23.29916122 8.03670537 -19.5 4.4375 C-13.08311131 0.65596642 -7.34526474 -0.17784215 0 0 Z " transform="translate(260.5,20.5625)"/>
</svg>
